<?xml version="1.0" encoding="UTF-8"?>
<svg id="Calque_1" xmlns="http://www.w3.org/2000/svg" width="279.3mm" height="207.4mm" viewBox="0 0 791.8 587.8">
  <defs>
    <style>
      .cls-1{stroke-width:0px;}
    </style>
  </defs>
  <path class="cls-1" d="m791.8,280.1c-.3.7-.6,1.5-.8,2.2-2.2,7.7-8.1,12.5-16.1,12.9-1.8,0-3.6,0-5.4,0-76.6,0-153.1,0-229.7,0-3.4,0-4.8,1.1-5.9,4.2-19,50.7-38,101.4-57.1,152-5.1,13.6-22.3,16.9-31.6,5.9-2-2.4-3.5-5.7-4.2-8.8-11.7-53.4-23.3-106.8-34.8-160.2-.9-4.2-1.8-8.3-3.4-12.5-1.5,5.3-2.9,10.6-4.4,16-3.5,13-6.9,26.1-10.4,39.1-2.8,10.4-9.4,15.4-20.3,15.4-13.8,0-27.6,0-41.4,0-2.2,0-3.1.7-3.7,2.8-19.9,74-39.9,147.9-59.6,222-2.3,8.6-6.9,14.1-15.3,16.7h-6.6c-.6-.2-1.3-.5-1.9-.7-8-2.4-13.1-8.9-13.6-17.2-2.2-42.6-4.4-85.2-6.5-127.9-2.2-43.4-4.4-86.8-6.6-130.3-2.7-53.5-5.4-107-8.1-160.5-.2-4.1-.5-8.2-.7-12.3-.6.4-.9.8-1,1.2-9.8,36.8-19.7,73.5-29.5,110.3-7.9,29.6-15.8,59.3-23.8,88.9-2.6,9.8-9.4,14.8-19.5,14.8-7.1,0-14.2,0-21.3,0-30,0-60,0-90,0-9.5,0-15.5-4.6-18.1-13.9-.1-.5-.4-.9-.6-1.4,0-2.2,0-4.4,0-6.6.1-.2.3-.3.3-.5,3.3-10.8,8.5-14.7,19.9-14.7,31.1,0,62.1,0,93.2,0,2.9,0,3.9-1,4.6-3.6,19-71.1,38.1-142.2,57.1-213.2,7.7-28.7,15.4-57.5,23.1-86.2,1.4-5.2,4.1-9.3,8.9-11.8C209,1.4,211,.8,212.9,0c2.2,0,4.4,0,6.6,0,0,0,.1.2.2.2,11.9,4.3,14.7,8.4,15.4,21.2,2.3,45.9,4.7,91.8,7,137.8,1.9,37.7,3.8,75.5,5.7,113.2,2.5,49.3,5,98.6,7.5,147.9.5,9.6.9,19.2,2,28.9.3-.9.6-1.7.8-2.6,11-40.6,21.9-81.2,32.9-121.8,2.8-10.4,9.2-15.4,20-15.4,13.8,0,27.6,0,41.4,0,2.5,0,3.4-.8,4-3.1,10.2-37.9,20.5-75.8,30.7-113.7,2.6-9.5,9.6-14.9,19-14.6,9.1.3,15.5,5.9,17.6,15.5,13.4,61.6,26.8,123.2,40.2,184.8,0,.2.1.4.4,1.1.5-1,.9-1.7,1.2-2.5,13.1-34.8,26.2-69.6,39.2-104.3,3.8-10.2,9.5-14.2,20.4-14.2,82.1,0,164.1,0,246.2,0,11.7,0,16.6,3.5,20.2,14.7,0,.2.2.3.4.5v6.6Z"/>
</svg>
